<svg xmlns="http://www.w3.org/2000/svg" width="1920" height="2000"><path d="M733,1027L460,916L516,1352Z" fill="#b9e9e4" stroke="#b9e9e4" stroke-width="1.51"/><path d="M516,1352L685,1380L733,1027Z" fill="#b3e8e2" stroke="#b3e8e2" stroke-width="1.51"/><path d="M460,916L121,867L516,1352Z" fill="#bfebe6" stroke="#bfebe6" stroke-width="1.51"/><path d="M25,1635L373,1653L516,1352Z" fill="#b5e8e3" stroke="#b5e8e3" stroke-width="1.51"/><path d="M516,1352L373,1653L685,1380Z" fill="#b1e7e1" stroke="#b1e7e1" stroke-width="1.51"/><path d="M852,586L497,571L460,916Z" fill="#c1ece7" stroke="#c1ece7" stroke-width="1.51"/><path d="M460,916L497,571L121,867Z" fill="#c6ede9" stroke="#c6ede9" stroke-width="1.51"/><path d="M733,1027L852,586L460,916Z" fill="#bceae5" stroke="#bceae5" stroke-width="1.51"/><path d="M1260,855L852,586L733,1027Z" fill="#b5e8e2" stroke="#b5e8e2" stroke-width="1.51"/><path d="M121,867L-113,1365L516,1352Z" fill="#c0ece7" stroke="#c0ece7" stroke-width="1.51"/><path d="M685,1380L1209,1269L733,1027Z" fill="#ade6e0" stroke="#ade6e0" stroke-width="1.51"/><path d="M1194,1894L1209,1269L685,1380Z" fill="#a2e3dc" stroke="#a2e3dc" stroke-width="1.51"/><path d="M-113,1365L25,1635L516,1352Z" fill="#bbeae5" stroke="#bbeae5" stroke-width="1.51"/><path d="M503,2026L649,1877L373,1653Z" fill="#a8e4de" stroke="#a8e4de" stroke-width="1.51"/><path d="M373,1653L649,1877L685,1380Z" fill="#ace5df" stroke="#ace5df" stroke-width="1.51"/><path d="M1209,1269L1260,855L733,1027Z" fill="#ade6df" stroke="#ade6df" stroke-width="1.51"/><path d="M121,867L-504,1011L-113,1365Z" fill="#ccefeb" stroke="#ccefeb" stroke-width="1.51"/><path d="M312,259L-142,600L121,867Z" fill="#d1f1ed" stroke="#d1f1ed" stroke-width="1.51"/><path d="M1260,855L1282,657L852,586Z" fill="#b3e8e2" stroke="#b3e8e2" stroke-width="1.51"/><path d="M497,571L312,259L121,867Z" fill="#ccefeb" stroke="#ccefeb" stroke-width="1.51"/><path d="M673,88L312,259L497,571Z" fill="#cdf0eb" stroke="#cdf0eb" stroke-width="1.51"/><path d="M673,88L497,571L852,586Z" fill="#c6ede9" stroke="#c6ede9" stroke-width="1.51"/><path d="M25,1635L503,2026L373,1653Z" fill="#b0e6e1" stroke="#b0e6e1" stroke-width="1.51"/><path d="M-113,1365L-336,1704L25,1635Z" fill="#c0ebe6" stroke="#c0ebe6" stroke-width="1.51"/><path d="M25,1635L24,2228L503,2026Z" fill="#aee6e0" stroke="#aee6e0" stroke-width="1.51"/><path d="M-504,1011L-371,1403L-113,1365Z" fill="#cdefeb" stroke="#cdefeb" stroke-width="1.51"/><path d="M503,2026L670,2109L649,1877Z" fill="#a2e2dc" stroke="#a2e2dc" stroke-width="1.51"/><path d="M649,1877L1194,1894L685,1380Z" fill="#a3e3dc" stroke="#a3e3dc" stroke-width="1.51"/><path d="M670,2109L1194,1894L649,1877Z" fill="#9ce1da" stroke="#9ce1da" stroke-width="1.51"/><path d="M1209,1269L1552,1145L1260,855Z" fill="#a4e3dd" stroke="#a4e3dd" stroke-width="1.51"/><path d="M1260,855L1510,518L1282,657Z" fill="#aee6e0" stroke="#aee6e0" stroke-width="1.51"/><path d="M1681,1259L1552,1145L1209,1269Z" fill="#9de1da" stroke="#9de1da" stroke-width="1.51"/><path d="M312,259L-33,271L-142,600Z" fill="#d7f3ef" stroke="#d7f3ef" stroke-width="1.51"/><path d="M-371,1403L-336,1704L-113,1365Z" fill="#c5ede9" stroke="#c5ede9" stroke-width="1.51"/><path d="M503,2026L459,2443L670,2109Z" fill="#9ee1db" stroke="#9ee1db" stroke-width="1.51"/><path d="M-142,600L-504,1011L121,867Z" fill="#d2f1ed" stroke="#d2f1ed" stroke-width="1.51"/><path d="M-371,1403L-476,2019L-336,1704Z" fill="#c4ece8" stroke="#c4ece8" stroke-width="1.51"/><path d="M-481,648L-504,1011L-142,600Z" fill="#d9f3f0" stroke="#d9f3f0" stroke-width="1.51"/><path d="M1296,356L673,88L852,586Z" fill="#c0ece6" stroke="#c0ece6" stroke-width="1.51"/><path d="M312,259L108,-192L-33,271Z" fill="#dbf4f0" stroke="#dbf4f0" stroke-width="1.51"/><path d="M1282,657L1296,356L852,586Z" fill="#b6e9e3" stroke="#b6e9e3" stroke-width="1.51"/><path d="M1510,518L1296,356L1282,657Z" fill="#b1e7e1" stroke="#b1e7e1" stroke-width="1.51"/><path d="M-317,279L-481,648L-142,600Z" fill="#ddf5f1" stroke="#ddf5f1" stroke-width="1.51"/><path d="M673,88L497,-10L312,259Z" fill="#d1f1ed" stroke="#d1f1ed" stroke-width="1.51"/><path d="M887,-210L497,-10L673,88Z" fill="#d0f0ec" stroke="#d0f0ec" stroke-width="1.51"/><path d="M1194,1894L1505,1745L1209,1269Z" fill="#98dfd8" stroke="#98dfd8" stroke-width="1.51"/><path d="M1840,754L1510,518L1260,855Z" fill="#a8e4de" stroke="#a8e4de" stroke-width="1.51"/><path d="M1552,1145L1840,754L1260,855Z" fill="#a2e3dc" stroke="#a2e3dc" stroke-width="1.51"/><path d="M1505,1745L1681,1259L1209,1269Z" fill="#98dfd8" stroke="#98dfd8" stroke-width="1.51"/><path d="M-33,271L-317,279L-142,600Z" fill="#dcf4f1" stroke="#dcf4f1" stroke-width="1.51"/><path d="M-407,-163L-317,279L-33,271Z" fill="#e4f7f4" stroke="#e4f7f4" stroke-width="1.51"/><path d="M-336,1704L24,2228L25,1635Z" fill="#b8e9e4" stroke="#b8e9e4" stroke-width="1.51"/><path d="M1093,2543L1259,2125L670,2109Z" fill="#90ddd6" stroke="#90ddd6" stroke-width="1.51"/><path d="M670,2109L1259,2125L1194,1894Z" fill="#94ded7" stroke="#94ded7" stroke-width="1.51"/><path d="M1194,1894L1259,2125L1505,1745Z" fill="#90ddd6" stroke="#90ddd6" stroke-width="1.51"/><path d="M1510,518L1498,325L1296,356Z" fill="#b2e7e1" stroke="#b2e7e1" stroke-width="1.51"/><path d="M1205,-166L887,-210L673,88Z" fill="#cbefeb" stroke="#cbefeb" stroke-width="1.51"/><path d="M1879,175L1498,325L1510,518Z" fill="#aee6e0" stroke="#aee6e0" stroke-width="1.51"/><path d="M24,2228L459,2443L503,2026Z" fill="#a4e3dc" stroke="#a4e3dc" stroke-width="1.51"/><path d="M24,2228L65,2621L459,2443Z" fill="#a3e3dc" stroke="#a3e3dc" stroke-width="1.51"/><path d="M-336,1704L-476,2019L24,2228Z" fill="#b9e9e4" stroke="#b9e9e4" stroke-width="1.51"/><path d="M-504,1011L-476,2019L-371,1403Z" fill="#cbefea" stroke="#cbefea" stroke-width="1.51"/><path d="M1681,1259L1840,754L1552,1145Z" fill="#9be1d9" stroke="#9be1d9" stroke-width="1.51"/><path d="M497,-10L108,-192L312,259Z" fill="#d9f3f0" stroke="#d9f3f0" stroke-width="1.51"/><path d="M1205,-166L673,88L1296,356Z" fill="#c3ede8" stroke="#c3ede8" stroke-width="1.51"/><path d="M356,-482L108,-192L497,-10Z" fill="#def5f1" stroke="#def5f1" stroke-width="1.51"/><path d="M1681,1259L2061,991L1840,754Z" fill="#97e0d8" stroke="#97e0d8" stroke-width="1.51"/><path d="M1505,1745L1925,1460L1681,1259Z" fill="#8fddd6" stroke="#8fddd6" stroke-width="1.51"/><path d="M1995,1765L1925,1460L1505,1745Z" fill="#88dbd3" stroke="#88dbd3" stroke-width="1.51"/><path d="M1498,325L1205,-166L1296,356Z" fill="#baeae4" stroke="#baeae4" stroke-width="1.51"/><path d="M1636,-255L1205,-166L1498,325Z" fill="#bceae5" stroke="#bceae5" stroke-width="1.51"/><path d="M459,2443L871,2587L670,2109Z" fill="#97dfd8" stroke="#97dfd8" stroke-width="1.51"/><path d="M1953,2068L1995,1765L1505,1745Z" fill="#82dad2" stroke="#82dad2" stroke-width="1.51"/><path d="M871,2587L1093,2543L670,2109Z" fill="#90ddd6" stroke="#90ddd6" stroke-width="1.51"/><path d="M1925,1460L2061,991L1681,1259Z" fill="#91ddd6" stroke="#91ddd6" stroke-width="1.51"/><path d="M1840,754L1879,175L1510,518Z" fill="#a8e4de" stroke="#a8e4de" stroke-width="1.51"/><path d="M-476,2019L-250,2449L24,2228Z" fill="#b3e8e2" stroke="#b3e8e2" stroke-width="1.51"/><path d="M459,2443L65,2621L871,2587Z" fill="#98e0d9" stroke="#98e0d9" stroke-width="1.51"/><path d="M-250,2449L65,2621L24,2228Z" fill="#a9e5df" stroke="#a9e5df" stroke-width="1.51"/><path d="M1681,2289L1505,1745L1259,2125Z" fill="#87dbd3" stroke="#87dbd3" stroke-width="1.51"/><path d="M2241,1373L2245,999L2061,991Z" fill="#8bdcd4" stroke="#8bdcd4" stroke-width="1.51"/><path d="M108,-192L-407,-163L-33,271Z" fill="#e4f7f4" stroke="#e4f7f4" stroke-width="1.51"/><path d="M-317,279L-407,-163L-481,648Z" fill="#e5f7f5" stroke="#e5f7f5" stroke-width="1.51"/><path d="M887,-210L356,-482L497,-10Z" fill="#d7f3ef" stroke="#d7f3ef" stroke-width="1.51"/><path d="M108,-192L-61,-507L-407,-163Z" fill="#eaf9f6" stroke="#eaf9f6" stroke-width="1.51"/><path d="M747,-625L356,-482L887,-210Z" fill="#d9f3f0" stroke="#d9f3f0" stroke-width="1.51"/><path d="M1656,2457L1681,2289L1259,2125Z" fill="#7fd9d0" stroke="#7fd9d0" stroke-width="1.51"/><path d="M2288,687L1879,175L1840,754Z" fill="#9fe1db" stroke="#9fe1db" stroke-width="1.51"/><path d="M1681,2289L1953,2068L1505,1745Z" fill="#81d9d1" stroke="#81d9d1" stroke-width="1.51"/><path d="M1437,-447L1247,-429L1205,-166Z" fill="#c7eee9" stroke="#c7eee9" stroke-width="1.51"/><path d="M1205,-166L1247,-429L887,-210Z" fill="#caefea" stroke="#caefea" stroke-width="1.51"/><path d="M2061,991L2288,687L1840,754Z" fill="#96dfd8" stroke="#96dfd8" stroke-width="1.51"/><path d="M2241,1373L2061,991L1925,1460Z" fill="#8adcd4" stroke="#8adcd4" stroke-width="1.51"/><path d="M2241,1373L1925,1460L2255,1718Z" fill="#82d9d1" stroke="#82d9d1" stroke-width="1.51"/><path d="M2255,1718L1925,1460L1995,1765Z" fill="#81d9d1" stroke="#81d9d1" stroke-width="1.51"/><path d="M747,-625L-61,-507L356,-482Z" fill="#e3f6f4" stroke="#e3f6f4" stroke-width="1.51"/><path d="M356,-482L-61,-507L108,-192Z" fill="#e6f7f5" stroke="#e6f7f5" stroke-width="1.51"/><path d="M1885,2494L1656,2457L1093,2543Z" fill="#79d7cf" stroke="#79d7cf" stroke-width="1.51"/><path d="M1093,2543L1656,2457L1259,2125Z" fill="#83dad2" stroke="#83dad2" stroke-width="1.51"/><path d="M1681,2289L1885,2494L1953,2068Z" fill="#76d6cd" stroke="#76d6cd" stroke-width="1.51"/><path d="M1247,-429L747,-625L887,-210Z" fill="#d1f1ed" stroke="#d1f1ed" stroke-width="1.51"/><path d="M1879,175L1636,-255L1498,325Z" fill="#b3e8e2" stroke="#b3e8e2" stroke-width="1.51"/><path d="M2241,1373L2288,687L2245,999Z" fill="#8bdcd4" stroke="#8bdcd4" stroke-width="1.51"/><path d="M2245,999L2288,687L2061,991Z" fill="#91ddd6" stroke="#91ddd6" stroke-width="1.51"/><path d="M1879,175L1964,-230L1636,-255Z" fill="#b3e7e2" stroke="#b3e7e2" stroke-width="1.51"/><path d="M1636,-255L1437,-447L1205,-166Z" fill="#c2ece7" stroke="#c2ece7" stroke-width="1.51"/><path d="M1247,-429L1437,-447L747,-625Z" fill="#cef0ec" stroke="#cef0ec" stroke-width="1.51"/><path d="M2387,2157L2255,1718L1953,2068Z" fill="#72d5cd" stroke="#72d5cd" stroke-width="1.51"/><path d="M1953,2068L2255,1718L1995,1765Z" fill="#7ad7cf" stroke="#7ad7cf" stroke-width="1.51"/><path d="M2241,1373L2387,2157L2288,687Z" fill="#80d9d1" stroke="#80d9d1" stroke-width="1.51"/><path d="M-61,-507L-274,-545L-407,-163Z" fill="#f0faf8" stroke="#f0faf8" stroke-width="1.51"/><path d="M747,-625L-274,-545L-61,-507Z" fill="#e9f9f6" stroke="#e9f9f6" stroke-width="1.51"/><path d="M1656,2457L1885,2494L1681,2289Z" fill="#75d6cd" stroke="#75d6cd" stroke-width="1.51"/><path d="M871,2587L1885,2494L1093,2543Z" fill="#80d9d1" stroke="#80d9d1" stroke-width="1.51"/><path d="M1636,-255L1778,-535L1437,-447Z" fill="#c0ece7" stroke="#c0ece7" stroke-width="1.51"/><path d="M2336,146L1964,-230L1879,175Z" fill="#aae4df" stroke="#aae4df" stroke-width="1.51"/><path d="M2387,2157L2336,146L2288,687Z" fill="#8adcd4" stroke="#8adcd4" stroke-width="1.51"/><path d="M2288,687L2336,146L1879,175Z" fill="#9fe2db" stroke="#9fe2db" stroke-width="1.51"/><path d="M2268,-450L1778,-535L1964,-230Z" fill="#b6e8e3" stroke="#b6e8e3" stroke-width="1.51"/><path d="M1964,-230L1778,-535L1636,-255Z" fill="#baeae4" stroke="#baeae4" stroke-width="1.51"/><path d="M1437,-447L1778,-535L747,-625Z" fill="#cbefeb" stroke="#cbefeb" stroke-width="1.51"/><path d="M2255,1718L2387,2157L2241,1373Z" fill="#76d6ce" stroke="#76d6ce" stroke-width="1.51"/><path d="M2232,2480L2387,2157L1953,2068Z" fill="#6bd3cb" stroke="#6bd3cb" stroke-width="1.51"/><path d="M1885,2494L2232,2480L1953,2068Z" fill="#6ed4cb" stroke="#6ed4cb" stroke-width="1.51"/><path d="M871,2587L2232,2480L1885,2494Z" fill="#74d6ce" stroke="#74d6ce" stroke-width="1.51"/><path d="M2336,146L2288,-223L1964,-230Z" fill="#a9e4df" stroke="#a9e4df" stroke-width="1.51"/><path d="M2336,146L2268,-450L2288,-223Z" fill="#a8e4de" stroke="#a8e4de" stroke-width="1.51"/><path d="M2288,-223L2268,-450L1964,-230Z" fill="#afe6e0" stroke="#afe6e0" stroke-width="1.51"/></svg>