<svg xmlns="http://www.w3.org/2000/svg" width="1920" height="2000"><path d="M1247,1306L1153,1537L1518,1570Z" fill="#938f9f" stroke="#938f9f" stroke-width="1.51"/><path d="M1518,1570L1537,1309L1247,1306Z" fill="#97929f" stroke="#97929f" stroke-width="1.51"/><path d="M1153,1537L1558,1989L1518,1570Z" fill="#aca7a0" stroke="#aca7a0" stroke-width="1.51"/><path d="M1518,1570L1892,1544L1537,1309Z" fill="#aea7a0" stroke="#aea7a0" stroke-width="1.51"/><path d="M1558,1989L1892,1544L1518,1570Z" fill="#bfb9a1" stroke="#bfb9a1" stroke-width="1.51"/><path d="M1247,1306L797,1307L1153,1537Z" fill="#77789d" stroke="#77789d" stroke-width="1.51"/><path d="M1153,1537L1063,2048L1558,1989Z" fill="#aaa5a0" stroke="#aaa5a0" stroke-width="1.51"/><path d="M797,1307L805,1701L1153,1537Z" fill="#7e7ea0" stroke="#7e7ea0" stroke-width="1.51"/><path d="M805,1701L1063,2048L1153,1537Z" fill="#928e9f" stroke="#928e9f" stroke-width="1.51"/><path d="M1537,1309L1489,831L1247,1306Z" fill="#82819d" stroke="#82819d" stroke-width="1.51"/><path d="M1247,1306L1187,801L797,1307Z" fill="#63689b" stroke="#63689b" stroke-width="1.51"/><path d="M1988,1231L1489,831L1537,1309Z" fill="#94909f" stroke="#94909f" stroke-width="1.51"/><path d="M1892,1544L1988,1231L1537,1309Z" fill="#afa9a0" stroke="#afa9a0" stroke-width="1.51"/><path d="M1489,831L1187,801L1247,1306Z" fill="#6e719d" stroke="#6e719d" stroke-width="1.51"/><path d="M1891,2345L2094,2077L1558,1989Z" fill="#d2cca1" stroke="#d2cca1" stroke-width="1.51"/><path d="M805,1701L762,2092L1063,2048Z" fill="#9b98a4" stroke="#9b98a4" stroke-width="1.51"/><path d="M380,1703L762,2092L805,1701Z" fill="#b1aeb0" stroke="#b1aeb0" stroke-width="1.51"/><path d="M1187,801L783,751L797,1307Z" fill="#545f9d" stroke="#545f9d" stroke-width="1.51"/><path d="M797,1307L380,1703L805,1701Z" fill="#9c9aae" stroke="#9c9aae" stroke-width="1.51"/><path d="M1207,436L783,751L1187,801Z" fill="#787dad" stroke="#787dad" stroke-width="1.51"/><path d="M1988,1231L2072,860L1489,831Z" fill="#9692a0" stroke="#9692a0" stroke-width="1.51"/><path d="M1489,831L1207,436L1187,801Z" fill="#8a8aad" stroke="#8a8aad" stroke-width="1.51"/><path d="M1558,1989L2094,2077L1892,1544Z" fill="#d2cca1" stroke="#d2cca1" stroke-width="1.51"/><path d="M1892,1544L2338,1709L1988,1231Z" fill="#b9b3a0" stroke="#b9b3a0" stroke-width="1.51"/><path d="M1988,1231L2395,1224L2072,860Z" fill="#9b979f" stroke="#9b979f" stroke-width="1.51"/><path d="M1260,2440L1558,1989L1063,2048Z" fill="#ada7a0" stroke="#ada7a0" stroke-width="1.51"/><path d="M757,2355L1260,2440L1063,2048Z" fill="#99949f" stroke="#99949f" stroke-width="1.51"/><path d="M436,818L402,1211L797,1307Z" fill="#8185b2" stroke="#8185b2" stroke-width="1.51"/><path d="M402,1211L380,1703L797,1307Z" fill="#9c9cb5" stroke="#9c9cb5" stroke-width="1.51"/><path d="M1260,2440L1578,2447L1558,1989Z" fill="#bab4a1" stroke="#bab4a1" stroke-width="1.51"/><path d="M2094,2077L2338,1709L1892,1544Z" fill="#cfc8a1" stroke="#cfc8a1" stroke-width="1.51"/><path d="M1578,2447L1891,2345L1558,1989Z" fill="#cac3a1" stroke="#cac3a1" stroke-width="1.51"/><path d="M2072,860L1560,456L1489,831Z" fill="#a9a5ae" stroke="#a9a5ae" stroke-width="1.51"/><path d="M1560,456L1207,436L1489,831Z" fill="#9f9eb4" stroke="#9f9eb4" stroke-width="1.51"/><path d="M762,2092L757,2355L1063,2048Z" fill="#9d99a4" stroke="#9d99a4" stroke-width="1.51"/><path d="M361,2504L757,2355L762,2092Z" fill="#b4b0b1" stroke="#b4b0b1" stroke-width="1.51"/><path d="M2338,1709L2395,1224L1988,1231Z" fill="#b1aba0" stroke="#b1aba0" stroke-width="1.51"/><path d="M741,399L436,818L783,751Z" fill="#8f93be" stroke="#8f93be" stroke-width="1.51"/><path d="M783,751L436,818L797,1307Z" fill="#6e75ac" stroke="#6e75ac" stroke-width="1.51"/><path d="M380,1703L309,1951L762,2092Z" fill="#c2beb9" stroke="#c2beb9" stroke-width="1.51"/><path d="M15,2042L309,1951L380,1703Z" fill="#dbd8c7" stroke="#dbd8c7" stroke-width="1.51"/><path d="M15,2042L380,1703L-145,1536Z" fill="#e0ddcc" stroke="#e0ddcc" stroke-width="1.51"/><path d="M2387,2451L2423,2004L2094,2077Z" fill="#d2cca1" stroke="#d2cca1" stroke-width="1.51"/><path d="M2094,2077L2423,2004L2338,1709Z" fill="#d2cca1" stroke="#d2cca1" stroke-width="1.51"/><path d="M2338,1709L2764,1278L2395,1224Z" fill="#b2aca1" stroke="#b2aca1" stroke-width="1.51"/><path d="M2072,860L2019,369L1560,456Z" fill="#bebbb7" stroke="#bebbb7" stroke-width="1.51"/><path d="M2395,1224L2368,850L2072,860Z" fill="#9592a0" stroke="#9592a0" stroke-width="1.51"/><path d="M1207,436L741,399L783,751Z" fill="#8287b7" stroke="#8287b7" stroke-width="1.51"/><path d="M402,309L741,399L685,-35Z" fill="#c0c2da" stroke="#c0c2da" stroke-width="1.51"/><path d="M2368,850L2019,369L2072,860Z" fill="#b1adaf" stroke="#b1adaf" stroke-width="1.51"/><path d="M1560,456L1540,-33L1207,436Z" fill="#bdbcc5" stroke="#bdbcc5" stroke-width="1.51"/><path d="M1578,2447L1588,2884L1891,2345Z" fill="#cbc4a1" stroke="#cbc4a1" stroke-width="1.51"/><path d="M1891,2345L2387,2451L2094,2077Z" fill="#d2cca1" stroke="#d2cca1" stroke-width="1.51"/><path d="M1260,2440L1258,2833L1578,2447Z" fill="#b2aca1" stroke="#b2aca1" stroke-width="1.51"/><path d="M782,2927L1258,2833L1260,2440Z" fill="#9e999f" stroke="#9e999f" stroke-width="1.51"/><path d="M782,2927L1260,2440L757,2355Z" fill="#9692a0" stroke="#9692a0" stroke-width="1.51"/><path d="M309,1951L361,2504L762,2092Z" fill="#c3bfb9" stroke="#c3bfb9" stroke-width="1.51"/><path d="M1258,2833L1588,2884L1578,2447Z" fill="#bbb5a1" stroke="#bbb5a1" stroke-width="1.51"/><path d="M2046,2959L2387,2451L1891,2345Z" fill="#d2cca1" stroke="#d2cca1" stroke-width="1.51"/><path d="M2395,1224L2803,821L2368,850Z" fill="#9793a1" stroke="#9793a1" stroke-width="1.51"/><path d="M2368,850L2474,287L2019,369Z" fill="#c4c0ba" stroke="#c4c0ba" stroke-width="1.51"/><path d="M2876,1516L2764,1278L2338,1709Z" fill="#bab4a1" stroke="#bab4a1" stroke-width="1.51"/><path d="M2740,2028L2338,1709L2423,2004Z" fill="#d2cca1" stroke="#d2cca1" stroke-width="1.51"/><path d="M309,1951L15,2042L361,2504Z" fill="#dbd8c7" stroke="#dbd8c7" stroke-width="1.51"/><path d="M-145,1536L380,1703L402,1211Z" fill="#c2c0c7" stroke="#c2c0c7" stroke-width="1.51"/><path d="M-119,833L-98,1192L402,1211Z" fill="#a8aac9" stroke="#a8aac9" stroke-width="1.51"/><path d="M-119,833L402,1211L436,818Z" fill="#9b9fc5" stroke="#9b9fc5" stroke-width="1.51"/><path d="M-98,1192L-145,1536L402,1211Z" fill="#bcbbcb" stroke="#bcbbcb" stroke-width="1.51"/><path d="M741,399L402,309L436,818Z" fill="#acaece" stroke="#acaece" stroke-width="1.51"/><path d="M1125,-48L741,399L1207,436Z" fill="#9ea0c4" stroke="#9ea0c4" stroke-width="1.51"/><path d="M2387,2451L2740,2028L2423,2004Z" fill="#d2cca1" stroke="#d2cca1" stroke-width="1.51"/><path d="M1977,-6L1540,-33L1560,456Z" fill="#dedbcc" stroke="#dedbcc" stroke-width="1.51"/><path d="M2740,2028L2876,1516L2338,1709Z" fill="#cdc6a1" stroke="#cdc6a1" stroke-width="1.51"/><path d="M1540,-33L1125,-48L1207,436Z" fill="#bdbdcb" stroke="#bdbdcb" stroke-width="1.51"/><path d="M361,2504L782,2927L757,2355Z" fill="#b3afb1" stroke="#b3afb1" stroke-width="1.51"/><path d="M1258,2833L782,2927L1588,2884Z" fill="#a7a1a0" stroke="#a7a1a0" stroke-width="1.51"/><path d="M-512,1597L-403,2066L-145,1536Z" fill="#dedbcc" stroke="#dedbcc" stroke-width="1.51"/><path d="M402,309L-119,833L436,818Z" fill="#babdd7" stroke="#babdd7" stroke-width="1.51"/><path d="M2019,369L1977,-6L1560,456Z" fill="#dbd8c7" stroke="#dbd8c7" stroke-width="1.51"/><path d="M2764,1278L2803,821L2395,1224Z" fill="#9c979f" stroke="#9c979f" stroke-width="1.51"/><path d="M2876,1516L2803,821L2764,1278Z" fill="#a39ea0" stroke="#a39ea0" stroke-width="1.51"/><path d="M2348,26L1977,-6L2019,369Z" fill="#e5e2cc" stroke="#e5e2cc" stroke-width="1.51"/><path d="M1588,2884L2046,2959L1891,2345Z" fill="#d2cca1" stroke="#d2cca1" stroke-width="1.51"/><path d="M2387,2451L2767,2544L2740,2028Z" fill="#d2cca1" stroke="#d2cca1" stroke-width="1.51"/><path d="M782,2927L2046,2959L1588,2884Z" fill="#bbb5a1" stroke="#bbb5a1" stroke-width="1.51"/><path d="M2803,821L2474,287L2368,850Z" fill="#b5b1b2" stroke="#b5b1b2" stroke-width="1.51"/><path d="M402,309L-155,290L-119,833Z" fill="#d7d9e7" stroke="#d7d9e7" stroke-width="1.51"/><path d="M1125,-48L685,-35L741,399Z" fill="#adafcf" stroke="#adafcf" stroke-width="1.51"/><path d="M-120,2889L354,2821L361,2504Z" fill="#dedbc9" stroke="#dedbc9" stroke-width="1.51"/><path d="M361,2504L354,2821L782,2927Z" fill="#c0bdb8" stroke="#c0bdb8" stroke-width="1.51"/><path d="M15,2042L-124,2368L361,2504Z" fill="#e5e2cc" stroke="#e5e2cc" stroke-width="1.51"/><path d="M-403,2066L-124,2368L15,2042Z" fill="#e5e2cc" stroke="#e5e2cc" stroke-width="1.51"/><path d="M2046,2959L2429,2813L2387,2451Z" fill="#d2cca1" stroke="#d2cca1" stroke-width="1.51"/><path d="M2737,57L2348,26L2474,287Z" fill="#e5e2cc" stroke="#e5e2cc" stroke-width="1.51"/><path d="M2474,287L2348,26L2019,369Z" fill="#e0ddca" stroke="#e0ddca" stroke-width="1.51"/><path d="M2429,2813L2767,2544L2387,2451Z" fill="#d2cca1" stroke="#d2cca1" stroke-width="1.51"/><path d="M2740,2028L2767,2544L2876,1516Z" fill="#d2cca1" stroke="#d2cca1" stroke-width="1.51"/><path d="M-145,1536L-403,2066L15,2042Z" fill="#e5e2cc" stroke="#e5e2cc" stroke-width="1.51"/><path d="M-512,1597L-145,1536L-567,1245Z" fill="#c8c6cb" stroke="#c8c6cb" stroke-width="1.51"/><path d="M2803,821L2809,345L2474,287Z" fill="#c6c2bb" stroke="#c6c2bb" stroke-width="1.51"/><path d="M2876,1516L2809,345L2803,821Z" fill="#9e9aa4" stroke="#9e9aa4" stroke-width="1.51"/><path d="M-567,1245L-145,1536L-98,1192Z" fill="#bdbccb" stroke="#bdbccb" stroke-width="1.51"/><path d="M335,-502L251,-56L685,-35Z" fill="#d9dbe8" stroke="#d9dbe8" stroke-width="1.51"/><path d="M685,-35L251,-56L402,309Z" fill="#d6d9e6" stroke="#d6d9e6" stroke-width="1.51"/><path d="M-523,781L-567,1245L-98,1192Z" fill="#a8aac9" stroke="#a8aac9" stroke-width="1.51"/><path d="M1556,-510L1261,-419L1540,-33Z" fill="#cbc9cb" stroke="#cbc9cb" stroke-width="1.51"/><path d="M1540,-33L1261,-419L1125,-48Z" fill="#bfbecb" stroke="#bfbecb" stroke-width="1.51"/><path d="M1125,-48L839,-500L685,-35Z" fill="#a9accd" stroke="#a9accd" stroke-width="1.51"/><path d="M1556,-510L1540,-33L1977,-6Z" fill="#dedbcc" stroke="#dedbcc" stroke-width="1.51"/><path d="M251,-56L-155,290L402,309Z" fill="#f2f4f6" stroke="#f2f4f6" stroke-width="1.51"/><path d="M-523,781L-98,1192L-119,833Z" fill="#a8abcc" stroke="#a8abcc" stroke-width="1.51"/><path d="M-546,404L-523,781L-119,833Z" fill="#c3c5dc" stroke="#c3c5dc" stroke-width="1.51"/><path d="M2058,-473L1556,-510L1977,-6Z" fill="#e5e2cc" stroke="#e5e2cc" stroke-width="1.51"/><path d="M2809,345L2737,57L2474,287Z" fill="#dfdcc9" stroke="#dfdcc9" stroke-width="1.51"/><path d="M2058,-473L1977,-6L2348,26Z" fill="#e5e2cc" stroke="#e5e2cc" stroke-width="1.51"/><path d="M2429,2813L2758,2901L2767,2544Z" fill="#d2cca1" stroke="#d2cca1" stroke-width="1.51"/><path d="M2767,2544L2758,2901L2876,1516Z" fill="#d2cca1" stroke="#d2cca1" stroke-width="1.51"/><path d="M2046,2959L2758,2901L2429,2813Z" fill="#d2cca1" stroke="#d2cca1" stroke-width="1.51"/><path d="M354,2821L-120,2889L782,2927Z" fill="#d0cdc1" stroke="#d0cdc1" stroke-width="1.51"/><path d="M-124,2368L-120,2889L361,2504Z" fill="#e5e2cc" stroke="#e5e2cc" stroke-width="1.51"/><path d="M-426,2802L-120,2889L-124,2368Z" fill="#e5e2cc" stroke="#e5e2cc" stroke-width="1.51"/><path d="M1556,-510L839,-500L1261,-419Z" fill="#b7b7ca" stroke="#b7b7ca" stroke-width="1.51"/><path d="M1261,-419L839,-500L1125,-48Z" fill="#abadc9" stroke="#abadc9" stroke-width="1.51"/><path d="M-403,2066L-481,2444L-124,2368Z" fill="#e5e2cc" stroke="#e5e2cc" stroke-width="1.51"/><path d="M-512,1597L-481,2444L-403,2066Z" fill="#e5e2cc" stroke="#e5e2cc" stroke-width="1.51"/><path d="M-567,1245L-481,2444L-512,1597Z" fill="#e0ddcc" stroke="#e0ddcc" stroke-width="1.51"/><path d="M-163,-414L-108,-5L251,-56Z" fill="#f7f9f9" stroke="#f7f9f9" stroke-width="1.51"/><path d="M251,-56L-108,-5L-155,290Z" fill="#f7f9f9" stroke="#f7f9f9" stroke-width="1.51"/><path d="M-155,290L-546,404L-119,833Z" fill="#d4d6e5" stroke="#d4d6e5" stroke-width="1.51"/><path d="M2405,-458L2058,-473L2348,26Z" fill="#e5e2cc" stroke="#e5e2cc" stroke-width="1.51"/><path d="M-480,-75L-546,404L-155,290Z" fill="#f3f5f7" stroke="#f3f5f7" stroke-width="1.51"/><path d="M-523,781L-546,404L-567,1245Z" fill="#b5b7d4" stroke="#b5b7d4" stroke-width="1.51"/><path d="M-481,2444L-426,2802L-124,2368Z" fill="#e5e2cc" stroke="#e5e2cc" stroke-width="1.51"/><path d="M2751,-407L2405,-458L2348,26Z" fill="#e5e2cc" stroke="#e5e2cc" stroke-width="1.51"/><path d="M2058,-473L2405,-458L1556,-510Z" fill="#e5e2cc" stroke="#e5e2cc" stroke-width="1.51"/><path d="M-108,-5L-480,-75L-155,290Z" fill="#f7f9f9" stroke="#f7f9f9" stroke-width="1.51"/><path d="M839,-500L335,-502L685,-35Z" fill="#c5c6dc" stroke="#c5c6dc" stroke-width="1.51"/><path d="M1556,-510L335,-502L839,-500Z" fill="#a6aacc" stroke="#a6aacc" stroke-width="1.51"/><path d="M2737,57L2751,-407L2348,26Z" fill="#e5e2cc" stroke="#e5e2cc" stroke-width="1.51"/><path d="M2809,345L2751,-407L2737,57Z" fill="#e5e2cc" stroke="#e5e2cc" stroke-width="1.51"/><path d="M-163,-414L-480,-75L-108,-5Z" fill="#f7f9f9" stroke="#f7f9f9" stroke-width="1.51"/><path d="M335,-502L-163,-414L251,-56Z" fill="#f6f8f8" stroke="#f6f8f8" stroke-width="1.51"/><path d="M335,-502L-530,-423L-163,-414Z" fill="#f7f9f9" stroke="#f7f9f9" stroke-width="1.51"/><path d="M-163,-414L-530,-423L-480,-75Z" fill="#f7f9f9" stroke="#f7f9f9" stroke-width="1.51"/><path d="M-480,-75L-530,-423L-546,404Z" fill="#f7f9f9" stroke="#f7f9f9" stroke-width="1.51"/><path d="M-546,404L-530,-423L-567,1245Z" fill="#dee0eb" stroke="#dee0eb" stroke-width="1.51"/></svg>