<svg xmlns="http://www.w3.org/2000/svg" width="1920" height="2000"><path d="M1059,914L1241,1296L1300,913Z" fill="#99949f" stroke="#99949f" stroke-width="1.51"/><path d="M1300,913L1401,758L1059,914Z" fill="#96929f" stroke="#96929f" stroke-width="1.51"/><path d="M1581,947L1401,758L1300,913Z" fill="#9a969f" stroke="#9a969f" stroke-width="1.51"/><path d="M1059,914L984,1441L1241,1296Z" fill="#9b969f" stroke="#9b969f" stroke-width="1.51"/><path d="M1241,1296L1581,947L1300,913Z" fill="#9d98a0" stroke="#9d98a0" stroke-width="1.51"/><path d="M1059,914L706,1094L984,1441Z" fill="#95919f" stroke="#95919f" stroke-width="1.51"/><path d="M1059,914L551,613L706,1094Z" fill="#8d8a9e" stroke="#8d8a9e" stroke-width="1.51"/><path d="M1401,758L924,530L1059,914Z" fill="#918e9f" stroke="#918e9f" stroke-width="1.51"/><path d="M1241,1296L1787,1312L1581,947Z" fill="#a39da0" stroke="#a39da0" stroke-width="1.51"/><path d="M1440,1766L1787,1312L1241,1296Z" fill="#a8a2a0" stroke="#a8a2a0" stroke-width="1.51"/><path d="M706,1094L521,1221L984,1441Z" fill="#94909f" stroke="#94909f" stroke-width="1.51"/><path d="M386,1040L521,1221L706,1094Z" fill="#8d8a9e" stroke="#8d8a9e" stroke-width="1.51"/><path d="M984,1441L1085,1756L1241,1296Z" fill="#a19ba0" stroke="#a19ba0" stroke-width="1.51"/><path d="M631,1743L1085,1756L984,1441Z" fill="#a09aa0" stroke="#a09aa0" stroke-width="1.51"/><path d="M1401,758L1256,402L924,530Z" fill="#8f8b9e" stroke="#8f8b9e" stroke-width="1.51"/><path d="M1658,425L1256,402L1401,758Z" fill="#938f9f" stroke="#938f9f" stroke-width="1.51"/><path d="M1085,1756L1440,1766L1241,1296Z" fill="#a6a0a0" stroke="#a6a0a0" stroke-width="1.51"/><path d="M924,530L551,613L1059,914Z" fill="#8a879e" stroke="#8a879e" stroke-width="1.51"/><path d="M1256,402L843,432L924,530Z" fill="#89869e" stroke="#89869e" stroke-width="1.51"/><path d="M1581,947L1786,646L1401,758Z" fill="#9c979f" stroke="#9c979f" stroke-width="1.51"/><path d="M1948,647L1786,646L2062,921Z" fill="#a19da0" stroke="#a19da0" stroke-width="1.51"/><path d="M843,432L551,613L924,530Z" fill="#85839e" stroke="#85839e" stroke-width="1.51"/><path d="M551,613L386,1040L706,1094Z" fill="#89869e" stroke="#89869e" stroke-width="1.51"/><path d="M1786,646L1658,425L1401,758Z" fill="#99949f" stroke="#99949f" stroke-width="1.51"/><path d="M926,1999L1225,1920L1085,1756Z" fill="#a8a2a0" stroke="#a8a2a0" stroke-width="1.51"/><path d="M1085,1756L1225,1920L1440,1766Z" fill="#aaa4a0" stroke="#aaa4a0" stroke-width="1.51"/><path d="M1692,1930L1731,1721L1440,1766Z" fill="#b1aba0" stroke="#b1aba0" stroke-width="1.51"/><path d="M1440,1766L1731,1721L1787,1312Z" fill="#aea8a0" stroke="#aea8a0" stroke-width="1.51"/><path d="M1731,1721L1954,1447L1787,1312Z" fill="#afa9a0" stroke="#afa9a0" stroke-width="1.51"/><path d="M2062,921L1786,646L1581,947Z" fill="#a19c9f" stroke="#a19c9f" stroke-width="1.51"/><path d="M521,1221L631,1743L984,1441Z" fill="#98939f" stroke="#98939f" stroke-width="1.51"/><path d="M258,1418L631,1743L521,1221Z" fill="#928f9f" stroke="#928f9f" stroke-width="1.51"/><path d="M1786,646L1948,647L1658,425Z" fill="#9c979f" stroke="#9c979f" stroke-width="1.51"/><path d="M2062,921L1581,947L1787,1312Z" fill="#a6a1a0" stroke="#a6a1a0" stroke-width="1.51"/><path d="M1954,1447L2062,921L1787,1312Z" fill="#aca6a0" stroke="#aca6a0" stroke-width="1.51"/><path d="M631,1743L926,1999L1085,1756Z" fill="#a39e9f" stroke="#a39e9f" stroke-width="1.51"/><path d="M843,432L529,387L551,613Z" fill="#82809e" stroke="#82809e" stroke-width="1.51"/><path d="M551,613L263,701L386,1040Z" fill="#83819e" stroke="#83819e" stroke-width="1.51"/><path d="M874,51L529,387L843,432Z" fill="#807f9d" stroke="#807f9d" stroke-width="1.51"/><path d="M386,1040L258,1418L521,1221Z" fill="#8c899e" stroke="#8c899e" stroke-width="1.51"/><path d="M-7,1135L258,1418L386,1040Z" fill="#87859e" stroke="#87859e" stroke-width="1.51"/><path d="M1207,2402L1692,1930L1225,1920Z" fill="#b2aca1" stroke="#b2aca1" stroke-width="1.51"/><path d="M1225,1920L1692,1930L1440,1766Z" fill="#afa9a0" stroke="#afa9a0" stroke-width="1.51"/><path d="M1731,1721L2041,1677L1954,1447Z" fill="#b3ada1" stroke="#b3ada1" stroke-width="1.51"/><path d="M373,326L263,701L551,613Z" fill="#7e7d9d" stroke="#7e7d9d" stroke-width="1.51"/><path d="M1256,402L1201,56L843,432Z" fill="#87859e" stroke="#87859e" stroke-width="1.51"/><path d="M1623,9L1201,56L1256,402Z" fill="#8a879e" stroke="#8a879e" stroke-width="1.51"/><path d="M1623,9L1256,402L1658,425Z" fill="#908c9e" stroke="#908c9e" stroke-width="1.51"/><path d="M2098,1973L2041,1677L1731,1721Z" fill="#b7b1a1" stroke="#b7b1a1" stroke-width="1.51"/><path d="M1954,1447L2382,1104L2062,921Z" fill="#aea8a0" stroke="#aea8a0" stroke-width="1.51"/><path d="M258,1418L346,1747L631,1743Z" fill="#95919f" stroke="#95919f" stroke-width="1.51"/><path d="M631,1743L488,1983L926,1999Z" fill="#a09ba0" stroke="#a09ba0" stroke-width="1.51"/><path d="M1201,56L874,51L843,432Z" fill="#82819e" stroke="#82819e" stroke-width="1.51"/><path d="M712,-66L373,326L529,387Z" fill="#79799d" stroke="#79799d" stroke-width="1.51"/><path d="M529,387L373,326L551,613Z" fill="#7d7c9d" stroke="#7d7c9d" stroke-width="1.51"/><path d="M346,1747L488,1983L631,1743Z" fill="#9b969f" stroke="#9b969f" stroke-width="1.51"/><path d="M1059,-293L712,-66L874,51Z" fill="#7a7a9d" stroke="#7a7a9d" stroke-width="1.51"/><path d="M2072,237L1623,9L1658,425Z" fill="#95909e" stroke="#95909e" stroke-width="1.51"/><path d="M-205,523L-7,1135L263,701Z" fill="#7a7a9d" stroke="#7a7a9d" stroke-width="1.51"/><path d="M263,701L-7,1135L386,1040Z" fill="#82819e" stroke="#82819e" stroke-width="1.51"/><path d="M258,1418L-72,1610L346,1747Z" fill="#8f8c9e" stroke="#8f8c9e" stroke-width="1.51"/><path d="M1948,647L2072,237L1658,425Z" fill="#9b969f" stroke="#9b969f" stroke-width="1.51"/><path d="M2062,921L2290,655L1948,647Z" fill="#a5a0a0" stroke="#a5a0a0" stroke-width="1.51"/><path d="M2382,1104L2290,655L2062,921Z" fill="#aba6a0" stroke="#aba6a0" stroke-width="1.51"/><path d="M2413,1420L2382,1104L1954,1447Z" fill="#b4aea0" stroke="#b4aea0" stroke-width="1.51"/><path d="M2250,282L2072,237L1948,647Z" fill="#9e99a0" stroke="#9e99a0" stroke-width="1.51"/><path d="M-7,1135L-31,1354L258,1418Z" fill="#87859e" stroke="#87859e" stroke-width="1.51"/><path d="M346,1747L208,1922L488,1983Z" fill="#99949f" stroke="#99949f" stroke-width="1.51"/><path d="M1059,-293L874,51L1201,56Z" fill="#7e7e9d" stroke="#7e7e9d" stroke-width="1.51"/><path d="M874,51L712,-66L529,387Z" fill="#7b7b9d" stroke="#7b7b9d" stroke-width="1.51"/><path d="M2041,1677L2413,1420L1954,1447Z" fill="#b6afa1" stroke="#b6afa1" stroke-width="1.51"/><path d="M1692,1930L2098,1973L1731,1721Z" fill="#b7b1a0" stroke="#b7b1a0" stroke-width="1.51"/><path d="M1748,2401L2098,1973L1692,1930Z" fill="#bcb5a1" stroke="#bcb5a1" stroke-width="1.51"/><path d="M2422,1705L2413,1420L2041,1677Z" fill="#bbb4a1" stroke="#bbb4a1" stroke-width="1.51"/><path d="M-72,1610L208,1922L346,1747Z" fill="#938e9e" stroke="#938e9e" stroke-width="1.51"/><path d="M572,2356L926,1999L488,1983Z" fill="#a49fa0" stroke="#a49fa0" stroke-width="1.51"/><path d="M846,2527L1207,2402L926,1999Z" fill="#afa9a0" stroke="#afa9a0" stroke-width="1.51"/><path d="M926,1999L1207,2402L1225,1920Z" fill="#ada7a0" stroke="#ada7a0" stroke-width="1.51"/><path d="M2290,655L2250,282L1948,647Z" fill="#a29da0" stroke="#a29da0" stroke-width="1.51"/><path d="M2072,237L2000,-59L1623,9Z" fill="#93909f" stroke="#93909f" stroke-width="1.51"/><path d="M2360,-150L2250,282L2290,655Z" fill="#9f9b9f" stroke="#9f9b9f" stroke-width="1.51"/><path d="M-31,1354L-72,1610L258,1418Z" fill="#8a889e" stroke="#8a889e" stroke-width="1.51"/><path d="M-369,1405L-72,1610L-31,1354Z" fill="#85839e" stroke="#85839e" stroke-width="1.51"/><path d="M2098,1973L2422,1705L2041,1677Z" fill="#bcb5a1" stroke="#bcb5a1" stroke-width="1.51"/><path d="M1401,-429L1059,-293L1201,56Z" fill="#7f7e9d" stroke="#7f7e9d" stroke-width="1.51"/><path d="M1401,-429L1201,56L1623,9Z" fill="#85839e" stroke="#85839e" stroke-width="1.51"/><path d="M384,2273L572,2356L488,1983Z" fill="#a29da0" stroke="#a29da0" stroke-width="1.51"/><path d="M384,2273L488,1983L208,1922Z" fill="#9d989f" stroke="#9d989f" stroke-width="1.51"/><path d="M2250,282L2000,-59L2072,237Z" fill="#99959f" stroke="#99959f" stroke-width="1.51"/><path d="M25,2125L384,2273L208,1922Z" fill="#9b969f" stroke="#9b969f" stroke-width="1.51"/><path d="M1207,2402L1748,2401L1692,1930Z" fill="#b8b2a1" stroke="#b8b2a1" stroke-width="1.51"/><path d="M2098,1973L2428,2093L2422,1705Z" fill="#c2bba1" stroke="#c2bba1" stroke-width="1.51"/><path d="M-141,2383L846,2527L572,2356Z" fill="#a5a0a0" stroke="#a5a0a0" stroke-width="1.51"/><path d="M572,2356L846,2527L926,1999Z" fill="#aaa5a0" stroke="#aaa5a0" stroke-width="1.51"/><path d="M1207,2402L2059,2502L1748,2401Z" fill="#bfb8a1" stroke="#bfb8a1" stroke-width="1.51"/><path d="M712,-66L179,-17L373,326Z" fill="#74759d" stroke="#74759d" stroke-width="1.51"/><path d="M373,326L-205,523L263,701Z" fill="#78789d" stroke="#78789d" stroke-width="1.51"/><path d="M203,-294L179,-17L712,-66Z" fill="#6e709c" stroke="#6e709c" stroke-width="1.51"/><path d="M-196,237L-205,523L373,326Z" fill="#71729d" stroke="#71729d" stroke-width="1.51"/><path d="M-7,1135L-369,1405L-31,1354Z" fill="#82819d" stroke="#82819d" stroke-width="1.51"/><path d="M1059,-293L657,-432L712,-66Z" fill="#75769c" stroke="#75769c" stroke-width="1.51"/><path d="M1753,-504L1401,-429L1623,9Z" fill="#85839e" stroke="#85839e" stroke-width="1.51"/><path d="M384,2273L-141,2383L572,2356Z" fill="#a19ca0" stroke="#a19ca0" stroke-width="1.51"/><path d="M-72,1610L25,2125L208,1922Z" fill="#938f9f" stroke="#938f9f" stroke-width="1.51"/><path d="M-72,1610L-485,2138L25,2125Z" fill="#908c9f" stroke="#908c9f" stroke-width="1.51"/><path d="M-494,1060L-369,1405L-7,1135Z" fill="#7d7c9d" stroke="#7d7c9d" stroke-width="1.51"/><path d="M2284,2386L2428,2093L2098,1973Z" fill="#c5bea1" stroke="#c5bea1" stroke-width="1.51"/><path d="M1401,-429L657,-432L1059,-293Z" fill="#77779d" stroke="#77779d" stroke-width="1.51"/><path d="M-205,523L-383,668L-7,1135Z" fill="#76769d" stroke="#76769d" stroke-width="1.51"/><path d="M-461,396L-383,668L-205,523Z" fill="#6c6f9c" stroke="#6c6f9c" stroke-width="1.51"/><path d="M-22,-106L-196,237L179,-17Z" fill="#696d9c" stroke="#696d9c" stroke-width="1.51"/><path d="M179,-17L-196,237L373,326Z" fill="#70719c" stroke="#70719c" stroke-width="1.51"/><path d="M846,2527L2059,2502L1207,2402Z" fill="#b9b3a1" stroke="#b9b3a1" stroke-width="1.51"/><path d="M1748,2401L2059,2502L2098,1973Z" fill="#c2bba1" stroke="#c2bba1" stroke-width="1.51"/><path d="M-383,668L-494,1060L-7,1135Z" fill="#77789d" stroke="#77789d" stroke-width="1.51"/><path d="M1401,-429L1753,-504L657,-432Z" fill="#7b7b9d" stroke="#7b7b9d" stroke-width="1.51"/><path d="M2000,-59L1753,-504L1623,9Z" fill="#8c899e" stroke="#8c899e" stroke-width="1.51"/><path d="M2081,-493L1753,-504L2000,-59Z" fill="#8c899e" stroke="#8c899e" stroke-width="1.51"/><path d="M657,-432L203,-294L712,-66Z" fill="#6e709c" stroke="#6e709c" stroke-width="1.51"/><path d="M203,-294L-22,-106L179,-17Z" fill="#686c9c" stroke="#686c9c" stroke-width="1.51"/><path d="M2059,2502L2284,2386L2098,1973Z" fill="#c5bfa1" stroke="#c5bfa1" stroke-width="1.51"/><path d="M2250,282L2360,-150L2000,-59Z" fill="#99949f" stroke="#99949f" stroke-width="1.51"/><path d="M2382,1104L2360,-150L2290,655Z" fill="#a6a1a0" stroke="#a6a1a0" stroke-width="1.51"/><path d="M2413,1420L2360,-150L2382,1104Z" fill="#aca6a0" stroke="#aca6a0" stroke-width="1.51"/><path d="M2360,-150L2241,-260L2000,-59Z" fill="#95919f" stroke="#95919f" stroke-width="1.51"/><path d="M-383,668L-461,396L-494,1060Z" fill="#6e719c" stroke="#6e719c" stroke-width="1.51"/><path d="M-196,237L-461,396L-205,523Z" fill="#6a6e9c" stroke="#6a6e9c" stroke-width="1.51"/><path d="M-444,-3L-461,396L-196,237Z" fill="#64699b" stroke="#64699b" stroke-width="1.51"/><path d="M2360,-150L2081,-493L2241,-260Z" fill="#938f9f" stroke="#938f9f" stroke-width="1.51"/><path d="M2241,-260L2081,-493L2000,-59Z" fill="#908d9e" stroke="#908d9e" stroke-width="1.51"/><path d="M-369,1405L-570,1650L-72,1610Z" fill="#84829e" stroke="#84829e" stroke-width="1.51"/><path d="M-494,1060L-570,1650L-369,1405Z" fill="#7c7c9e" stroke="#7c7c9e" stroke-width="1.51"/><path d="M-524,-488L-570,1650L-494,1060Z" fill="#6d709c" stroke="#6d709c" stroke-width="1.51"/><path d="M-485,2138L-141,2383L25,2125Z" fill="#94919f" stroke="#94919f" stroke-width="1.51"/><path d="M25,2125L-141,2383L384,2273Z" fill="#9b979f" stroke="#9b979f" stroke-width="1.51"/><path d="M-461,396L-524,-488L-494,1060Z" fill="#64699c" stroke="#64699c" stroke-width="1.51"/><path d="M-22,-106L-444,-3L-196,237Z" fill="#64699c" stroke="#64699c" stroke-width="1.51"/><path d="M-85,-430L-444,-3L-22,-106Z" fill="#60659b" stroke="#60659b" stroke-width="1.51"/><path d="M-570,1650L-485,2138L-72,1610Z" fill="#88869e" stroke="#88869e" stroke-width="1.51"/><path d="M203,-294L-85,-430L-22,-106Z" fill="#63689b" stroke="#63689b" stroke-width="1.51"/><path d="M657,-432L-85,-430L203,-294Z" fill="#656a9c" stroke="#656a9c" stroke-width="1.51"/><path d="M-524,-488L-85,-430L657,-432Z" fill="#5e649b" stroke="#5e649b" stroke-width="1.51"/><path d="M-141,2383L-477,2447L846,2527Z" fill="#9f9a9f" stroke="#9f9a9f" stroke-width="1.51"/><path d="M-485,2138L-477,2447L-141,2383Z" fill="#938f9f" stroke="#938f9f" stroke-width="1.51"/><path d="M-570,1650L-477,2447L-485,2138Z" fill="#8b889e" stroke="#8b889e" stroke-width="1.51"/><path d="M-85,-430L-524,-488L-444,-3Z" fill="#58619a" stroke="#58619a" stroke-width="1.51"/><path d="M-444,-3L-524,-488L-461,396Z" fill="#5c639b" stroke="#5c639b" stroke-width="1.51"/><path d="M1753,-504L-524,-488L657,-432Z" fill="#6c6f9c" stroke="#6c6f9c" stroke-width="1.51"/></svg>